# xmcd CD database file
#
# Track frame offsets:
#	150
#	28921
#	53620
#	88866
#	110715
#	140731
#	174833
#	201398
#	225432
#	247598
#
# Disc length: 3606 seconds
#
# Revision: 0
# Processed by: cddbd v1.5.1PL0 Copyright (c) Steve Scherf et al.
# Submitted via: CDex 1.51
#
DISCID=810e140a
DTITLE=David Jones - together
DYEAR=1999
DGENRE=Jazz
TTITLE0=together
TTITLE1=never felt this way
TTITLE2=this masquerade
TTITLE3=anytime
TTITLE4=love ballad
TTITLE5=tonight
TTITLE6=people make the world go round
TTITLE7=can you stand the rain
TTITLE8=ain't no sunshine
TTITLE9=too late
EXTD=YEAR: 1999
EXTT0=
EXTT1=
EXTT2=
EXTT3=
EXTT4=
EXTT5=
EXTT6=
EXTT7=
EXTT8=
EXTT9=
PLAYORDER=
